HIERARCHY
ROOT root
{
	OFFSET 0.000000 0.000000 0.000000
	CHANNELS 6 Xposition Yposition Zposition Zrotation Yrotation Xrotation
	JOINT lhip
	{
		OFFSET 0.058581 -0.082280 -0.017664
		CHANNELS 3 Zrotation Yrotation Xrotation
		JOINT lknee
		{
			OFFSET 0.043451 -0.386469 0.008037
			CHANNELS 3 Zrotation Yrotation Xrotation
			JOINT lankle
			{
				OFFSET -0.014790 -0.426874 -0.037428
				CHANNELS 3 Zrotation Yrotation Xrotation
				JOINT ltoe
				{
					OFFSET 0.041054 -0.060286 0.122042
					CHANNELS 3 Zrotation Yrotation Xrotation
					End Site
					{
						OFFSET 0.000000 0.000000 0.000000
					}
				}
			}
		}
	}
	JOINT rhip
	{
		OFFSET -0.060310 -0.090513 -0.013543
		CHANNELS 3 Zrotation Yrotation Xrotation
		JOINT rknee
		{
			OFFSET -0.043257 -0.383688 -0.004843
			CHANNELS 3 Zrotation Yrotation Xrotation
			JOINT rankle
			{
				OFFSET 0.019056 -0.420046 -0.034562
				CHANNELS 3 Zrotation Yrotation Xrotation
				JOINT rtoe
				{
					OFFSET -0.034840 -0.062106 0.130323
					CHANNELS 3 Zrotation Yrotation Xrotation
					End Site
					{
						OFFSET 0.000000 0.000000 0.000000
					}
				}
			}
		}
	}
	JOINT lowerback
	{
		OFFSET 0.004439 0.124404 -0.038385
		CHANNELS 3 Zrotation Yrotation Xrotation
		JOINT upperback
		{
			OFFSET 0.004488 0.137956 0.026820
			CHANNELS 3 Zrotation Yrotation Xrotation
			JOINT chest
			{
				OFFSET -0.002265 0.056032 0.002855
				CHANNELS 3 Zrotation Yrotation Xrotation
				JOINT lowerneck
				{
					OFFSET -0.013390 0.211636 -0.033468
					CHANNELS 3 Zrotation Yrotation Xrotation
					JOINT upperneck
					{
						OFFSET 0.010113 0.088937 0.050410
						CHANNELS 3 Zrotation Yrotation Xrotation
						End Site
						{
							OFFSET 0.000000 0.000000 0.000000
						}
					}
				}
				JOINT lclavicle
				{
					OFFSET 0.071702 0.114000 -0.018898
					CHANNELS 3 Zrotation Yrotation Xrotation
					JOINT lshoulder
					{
						OFFSET 0.122921 0.045205 -0.019046
						CHANNELS 3 Zrotation Yrotation Xrotation
						JOINT lelbow
						{
							OFFSET 0.255332 -0.015649 -0.022946
							CHANNELS 3 Zrotation Yrotation Xrotation
							JOINT lwrist
							{
								OFFSET 0.265709 0.012698 -0.007375
								CHANNELS 3 Zrotation Yrotation Xrotation
								End Site
								{
									OFFSET 0.000000 0.000000 0.000000
								}
							}
						}
					}
				}
				JOINT rclavicle
				{
					OFFSET -0.082954 0.112472 -0.023707
					CHANNELS 3 Zrotation Yrotation Xrotation
					JOINT rshoulder
					{
						OFFSET -0.113228 0.046853 -0.008472
						CHANNELS 3 Zrotation Yrotation Xrotation
						JOINT relbow
						{
							OFFSET -0.260127 -0.014369 -0.031269
							CHANNELS 3 Zrotation Yrotation Xrotation
							JOINT rwrist
							{
								OFFSET -0.269108 0.006794 -0.006027
								CHANNELS 3 Zrotation Yrotation Xrotation
								End Site
								{
									OFFSET 0.000000 0.000000 0.000000
								}
							}
						}
					}
				}
			}
		}
	}
}
MOTION
Frames: 8
Frame Time: 0.033333
0.014675 0.210576 1.003654 54.269519 -3.092965 98.549006 1.829986 7.280534 -10.237981 -0.429441 23.488639 17.726706 1.928280 15.231698 -14.354320 0.000000 -0.000000 0.000000 -2.252287 10.440460 -22.225049 -4.578653 3.048044 12.064861 3.230880 2.433087 3.025315 0.000000 -0.000000 0.000000 10.227195 -7.985054 8.797208 12.622144 -9.295348 12.024081 3.876478 -2.665136 -2.659425 -9.962730 12.942102 10.253772 -16.663337 9.821361 -6.638342 -18.314413 -0.676605 -2.130259 -69.810303 -9.962267 30.684998 -164.579752 -66.132834 -164.991104 -13.899517 -14.847082 -9.802748 21.751741 -2.627752 -6.946233 54.053627 2.833853 25.496562 176.847002 60.155847 -169.032913 14.681794 15.016710 -20.081444 
0.015038 0.210911 1.003311 54.477221 -3.243811 98.778331 1.607199 7.247863 -10.644866 -0.351259 23.314591 17.988331 2.195186 15.170334 -14.325640 0.000000 -0.000000 0.000000 -2.477905 10.168936 -22.509818 -4.456473 3.288474 12.159921 3.491620 2.059929 2.937839 0.000000 -0.000000 0.000000 10.391189 -8.328078 8.982894 12.498432 -9.355075 11.992540 3.817754 -2.416862 -2.836935 -10.522905 12.777334 9.649994 -16.823074 10.188043 -6.973672 -18.420439 -0.977987 -1.857575 -69.717824 -9.887657 30.270831 -164.570290 -65.820311 -164.330071 -13.192769 -15.004996 -10.608007 21.709463 -2.322562 -6.897428 54.067651 2.596983 25.105640 176.365096 59.850255 -169.180672 14.160477 15.100430 -20.506042 
0.014661 0.211245 1.002906 54.352122 -3.284771 98.913594 1.616733 7.378254 -10.852327 -0.460620 23.380260 18.164841 2.214879 15.068718 -14.458175 0.000000 -0.000000 0.000000 -2.586461 10.336453 -22.840288 -4.461080 3.297593 12.452225 3.479757 2.047970 2.859953 0.000000 -0.000000 0.000000 10.388897 -8.321780 9.501083 12.521021 -9.089813 12.051248 3.909168 -2.471135 -3.022475 -10.728141 13.089111 8.794449 -17.313889 10.150915 -7.217826 -18.380351 -1.148801 -1.934545 -69.732921 -9.802016 30.243171 -165.096938 -65.530679 -163.679808 -13.248803 -14.983553 -10.650563 21.811925 -2.172976 -6.875573 53.959310 2.645420 25.114503 176.586742 59.598461 -168.910928 14.145535 15.081117 -20.425222 
0.014406 0.211443 1.002422 54.456081 -3.275875 99.097601 1.721546 7.525732 -11.213955 -0.545637 23.438507 18.520621 2.238532 14.821498 -14.654723 0.000000 -0.000000 0.000000 -2.607182 10.348166 -23.233296 -4.491618 3.239952 12.818172 3.394884 2.049331 2.721255 0.000000 -0.000000 0.000000 10.540702 -8.476302 10.020826 12.509773 -8.964975 11.965956 3.924279 -2.422723 -3.215250 -10.897637 13.521433 8.004615 -17.847133 10.100400 -7.670912 -18.321426 -1.304158 -1.893687 -69.750326 -9.736155 30.166670 -165.648397 -65.229215 -162.955658 -13.308984 -15.036107 -10.719737 21.831979 -1.866037 -6.601476 54.017305 2.582477 25.064738 177.034701 59.323069 -168.217699 14.055610 15.227948 -20.591155 
0.014094 0.211516 1.002096 54.439750 -3.306550 99.256246 1.709245 7.648280 -11.427270 -0.591184 23.498113 18.624718 2.252810 14.638978 -14.691726 0.000000 -0.000000 0.000000 -2.681636 10.407984 -23.523579 -4.500481 3.210953 12.999489 3.355459 2.054985 2.708184 0.000000 -0.000000 0.000000 10.540925 -8.535744 10.092515 12.457053 -8.915155 12.117812 3.915429 -2.366997 -3.130140 -11.053132 13.689454 7.390065 -18.156433 10.067985 -7.967114 -18.301658 -1.490787 -2.000428 -69.648104 -9.700083 30.053712 -165.809647 -65.044301 -162.585722 -13.332678 -15.012569 -10.569405 21.997712 -1.582230 -6.419544 53.947547 2.723734 24.980243 177.308974 59.179791 -167.819244 13.975794 15.158341 -20.506749 
0.013679 0.211724 1.001661 54.545009 -3.344654 99.500335 1.681870 7.656053 -11.785329 -0.608252 23.499268 18.744159 2.283772 14.582795 -14.699369 0.000000 -0.000000 0.000000 -2.784210 10.438262 -23.913793 -4.497948 3.190841 13.184567 3.209429 1.949405 2.683031 0.000000 -0.000000 0.000000 10.602377 -8.605465 10.679147 12.444351 -8.708980 11.704555 3.993994 -2.390583 -3.354298 -11.198240 13.915174 6.706638 -18.523558 10.184136 -8.140659 -18.491509 -1.441026 -1.920715 -69.507924 -9.565124 29.982753 -165.839886 -64.769639 -162.377167 -13.601417 -14.970872 -10.532928 22.026906 -1.560876 -6.260391 53.911816 2.647076 24.973941 177.311344 58.973731 -167.669254 14.130304 15.079789 -20.399802 
0.013494 0.211748 1.001278 54.569874 -3.360968 99.650992 1.684578 7.690868 -11.987194 -0.630446 23.531739 18.836136 2.297198 14.518415 -14.710933 0.000000 -0.000000 0.000000 -2.805087 10.427965 -24.125445 -4.511025 3.235118 13.245881 3.113550 1.921793 2.689870 0.000000 -0.000000 0.000000 10.705806 -8.643609 10.929905 12.344564 -8.656565 11.844053 3.968343 -2.325575 -3.446552 -11.569100 14.172165 5.905367 -18.679305 10.130054 -8.491259 -18.584892 -1.688612 -1.985115 -69.329192 -9.341627 29.840681 -166.228099 -64.539734 -161.917342 -13.410646 -14.953878 -10.367235 22.141766 -1.385114 -6.319797 53.807427 2.566074 24.870964 177.128733 58.811785 -167.884084 14.059804 15.046749 -20.166209 
0.013059 0.211622 1.001062 54.488907 -3.388776 99.825374 1.649416 7.706489 -12.226985 -0.583995 23.657147 18.935445 2.334898 14.424636 -14.696078 0.000000 -0.000000 0.000000 -2.852715 10.484057 -24.422727 -4.550261 3.198996 13.389724 3.062990 2.023349 2.703310 0.000000 -0.000000 0.000000 10.743735 -8.733732 11.094774 12.184207 -8.686369 12.255409 3.853610 -2.221365 -3.627999 -11.781370 14.537786 5.110840 -18.965957 10.181668 -8.911431 -18.525582 -1.683067 -2.109145 -69.231056 -9.168340 29.744054 -166.442399 -64.306437 -161.768217 -13.588468 -14.957880 -10.194293 22.306603 -1.165061 -6.205169 53.731911 2.689735 24.936493 177.245480 58.721924 -167.780557 13.961830 15.161914 -19.811446 
